<svg version="1.1" xmlns="http://www.w3.org/2000/svg" xmlns:xlink="http://www.w3.org/1999/xlink" width="48" height="48"><defs><linearGradient x1="14.22989" y1="14.22989" x2="43.31605" y2="43.31605" gradientUnits="userSpaceOnUse" id="color-1"><stop offset="0" stop-color="#000000" stop-opacity="0.37"></stop><stop offset="1" stop-color="#000000" stop-opacity="0"></stop></linearGradient><filter id="dropshadow-base"><feColorMatrix type="matrix" values="0 0 0 0 0  0 0 0 0 0  0 0 0 0 0  0 0 0 .8 0"></feColorMatrix> <feOffset dx="0" dy="1"></feOffset> <feGaussianBlur stdDeviation="1"></feGaussianBlur> <feComposite in="SourceGraphic"></feComposite></filter><filter id="dropshadow-banner" x="-10%" y="-10%" width="120%" height="130%"><feColorMatrix type="matrix" values="0 0 0 0 0  0 0 0 0 0  0 0 0 0 0  0 0 0 .4 0"></feColorMatrix> <feOffset dx="0" dy="1"></feOffset> <feGaussianBlur stdDeviation="0.5"></feGaussianBlur> <feComposite in="SourceGraphic"></feComposite></filter></defs><g fill="none" fill-rule="nonzero" stroke="none" stroke-width="none" stroke-linecap="butt" stroke-linejoin="miter" stroke-miterlimit="10" stroke-dasharray="" stroke-dashoffset="0" font-family="none" font-weight="none" font-size="none" text-anchor="none" style="mix-blend-mode: normal"><path d="M7,43c-1.10457,0 -2,-0.89543 -2,-2v-34c0,-1.10457 0.89543,-2 2,-2h34c1.10457,0 2,0.89543 2,2v26l-10,10z" id="base 1 5 2" fill="#9c27b0" stroke-width="1"></path><path d="M23.7783,33.76764c0.0737,0.00164 0.1476,0.00247 0.2217,0.00247c0.89474,0 1.76151,-0.12047 2.58496,-0.34607l-2.46368,-2.46368c-0.22521,0.82348 -0.34544,1.69043 -0.34544,2.58559c0,0.0741 0.00083,0.148 0.00247,0.2217zM40.45461,26.63784c1.20761,1.20761 2.10069,2.72993 2.54539,4.43371v1.92845l-10,10h-1.92845c-1.70378,-0.4447 -3.2261,-1.33778 -4.43371,-2.54539l-9.54594,-9.54594c-1.76848,-1.76848 -2.86201,-4.21151 -2.86201,-6.90867c0,-5.39799 4.37212,-9.77011 9.77011,-9.77011c2.69716,0 5.14018,1.09353 6.90867,2.86201l9.54594,9.54594z" fill="url(#color-1)" stroke-width="1"></path><path d="M24,14.22989c-5.39799,0 -9.77011,4.37212 -9.77011,9.77011c0,5.3931 4.37212,9.77011 9.77011,9.77011c5.3931,0 9.77011,-4.37701 9.77011,-9.77011c0,-5.39799 -4.37701,-9.77011 -9.77011,-9.77011zM22.04598,28.88505l-4.88505,-4.88505l1.38247,-1.38247l3.50258,3.50258l7.41063,-7.41063l1.38247,1.38247z" fill="none" stroke-width="0"></path><path d="M33.77011,24c0,5.3931 -4.37701,9.77011 -9.77011,9.77011c-5.39799,0 -9.77011,-4.37701 -9.77011,-9.77011c0,-5.39799 4.37212,-9.77011 9.77011,-9.77011c5.3931,0 9.77011,4.37212 9.77011,9.77011zM30.83908,20.09196l-1.38247,-1.38247l-7.41063,7.41063l-3.50258,-3.50258l-1.38247,1.38247l4.88505,4.88505z" fill="#f3e5f5" stroke-width="0"></path><path d="M2,24c0,-12.15026 9.84974,-22 22,-22c12.15026,0 22,9.84974 22,22c0,12.15026 -9.84974,22 -22,22c-12.15026,0 -22,-9.84974 -22,-22z" id="base 1 1 1" fill="none" stroke-width="1"></path><g fill="#000000" stroke-width="1" font-family="Roboto, sans-serif" font-weight="normal" font-size="14" text-anchor="start"></g><rect x="2" y="2" width="44" height="22" fill="none" stroke-width="1"></rect><path d="M2,24v-22h44v22z" fill="none" stroke-width="1"></path><path d="M2,24v-22h44v22z" fill="none" stroke-width="1"></path><path d="M2,24v-22h44v22z" fill="none" stroke-width="1"></path><path d="M2,24v-22h44v22z" fill="none" stroke-width="1"></path><path d="M43,33l-10,10v-8c0,-1 1,-2 2,-2z" fill="#ba45ce" stroke-width="1"></path></g></svg>